<svg width="738" height="391" viewBox="0 0 738 391" fill="none" xmlns="http://www.w3.org/2000/svg">
<path d="M78.9999 390C79.0141 390 713.819 390 713.819 390C713.819 390 720.572 273.413 651.611 246.821C582.651 220.229 596.457 172.718 570.372 117.195C554.196 82.7582 533.821 47.2018 497.27 26.3613C445.677 -3.05851 388.667 -4.32042 333 7.49994C288.09 17.0365 245.305 44.5327 230.706 85.5107C222.093 109.692 231.774 131.918 231.392 156.143C230.402 219.209 114.126 209.029 89.8384 261.756C65.551 314.482 82.9299 390 78.9999 390Z" fill="#DBF3FF" fill-opacity="0.1"/>
<path d="M715.073 390.224H656.603C654.731 390.224 653.213 388.704 653.213 386.83V384.568C653.213 382.695 654.731 381.175 656.603 381.175H715.073C716.945 381.175 718.463 382.695 718.463 384.568V386.83C718.463 388.704 716.945 390.224 715.073 390.224Z" fill="#88D4FF"/>
<path d="M725.596 310.475H720.632V297.005H672.293V381.133C659.268 378.188 660.321 361.576 660.321 361.576V297.001H650V363.717C650 376.181 660.096 386.287 672.548 386.287H698.08C710.531 386.287 720.628 376.181 720.628 363.717V358.718H725.592C732.436 358.718 738 353.145 738 346.294V322.895C738.009 316.048 732.441 310.475 725.596 310.475ZM729.051 346.298C729.051 348.202 727.502 349.752 725.6 349.752H720.636V319.441H725.6C727.502 319.441 729.051 320.991 729.051 322.895V346.298Z" fill="#303A5D"/>
<path d="M672.298 381.132V297H660.325V361.575C660.325 361.575 659.277 378.187 672.298 381.132Z" fill="#88D4FF"/>
<path d="M87.2492 390H25.7508C24.2319 390 23 388.321 23 386.25V383.75C23 381.679 24.2319 380 25.7508 380H87.2492C88.7681 380 90 381.679 90 383.75V386.25C90 388.321 88.7681 390 87.2492 390Z" fill="#88D4FF"/>
<path d="M56.3022 309.167C56.3022 309.167 3.72097 284.111 19.4412 261.115C35.1615 238.12 42.3569 241.654 39.4257 229.637C36.4945 217.616 34.3483 213.978 44.4218 202.507C54.4919 191.035 55.6976 185.63 59.5976 170.724C63.4976 155.819 76.9868 153.869 81.2227 165.612C85.4586 177.354 82.2905 189.357 93.1137 198.619C103.937 207.88 114.025 212.164 107.172 229.091C100.316 246.021 96.2606 244.517 106.578 254.571C116.896 264.629 122.511 273.326 111.458 288.096C100.401 302.862 82.386 313.691 56.3022 309.167Z" fill="#00579B"/>
<path d="M62.6844 298.635C72.1922 298.749 81.3147 297.032 89.7971 293.533C96.5823 290.734 102.975 286.799 108.795 281.833C112.331 278.816 115.227 275.775 117.493 273.108C117.483 272.436 117.43 271.776 117.338 271.123C114.993 273.986 111.839 277.406 107.858 280.798C102.151 285.661 95.8858 289.513 89.242 292.248C81.007 295.639 72.1569 297.314 62.9284 297.232C64.5053 290.62 65.9373 283.822 67.2208 276.853C81.5586 276.317 92.258 269.452 98.7533 263.711C102.395 260.494 105.121 257.317 106.949 254.932C106.826 254.81 106.702 254.689 106.578 254.567C106.359 254.353 106.147 254.146 105.942 253.943C104.142 256.306 101.419 259.498 97.8057 262.69C91.5296 268.227 81.2369 274.843 67.479 275.446C67.6876 274.297 67.8927 273.143 68.0942 271.983C68.2887 270.851 68.4796 269.72 68.667 268.581L68.713 268.834C76.3115 267.392 84.5393 262.972 93.1667 255.706C95.2175 253.978 98.0002 251.479 101.094 248.284C100.832 247.809 100.638 247.356 100.514 246.909C85.9112 262.297 73.9425 266.331 68.8579 267.381C69.8869 261.008 70.8026 254.507 71.5947 247.895C80.459 247.441 89.5425 239.919 98.6013 225.517C101.96 220.175 104.697 214.817 106.613 210.75C106.313 210.329 105.991 209.918 105.648 209.511C100.164 221.254 87.0533 245.456 71.7608 246.484C72.5034 240.119 73.1363 233.657 73.6525 227.112C82.881 222.086 89.4435 212.707 93.3541 205.63C94.2734 203.97 95.0902 202.356 95.8115 200.846C95.4403 200.546 95.0655 200.243 94.6871 199.932C90.8154 208.105 83.9418 219.526 73.7833 225.438C74.045 221.986 74.2748 218.515 74.4728 215.024C74.5577 213.503 74.639 212 74.7097 210.518C79.8508 207.148 84.2352 201.032 87.7428 192.313C87.7605 192.267 87.7781 192.221 87.7993 192.174C87.4882 191.614 87.2124 191.05 86.9507 190.478C84.5216 196.869 80.6039 204.506 74.791 208.769C75.972 182.677 74.9926 163.43 74.685 158.432C74.2642 158.293 73.8364 158.186 73.405 158.114C73.5889 161.549 74.2041 175.012 73.8116 193.974C64.7776 189.646 62.7339 175.03 62.5642 163.887C62.0833 164.612 61.6342 165.398 61.2206 166.254C61.2665 167.5 61.3408 168.775 61.4468 170.06C62.4652 182.481 65.8914 190.639 71.6371 194.359C72.3195 194.798 73.0337 195.177 73.7798 195.495C73.6384 201.66 73.3873 208.379 72.9842 215.502C72.8994 216.98 72.8075 218.49 72.7014 220.033C62.3449 215.159 56.3906 200.828 53.2791 190.103C52.9785 190.689 52.6639 191.271 52.3279 191.856C52.7841 193.363 53.2932 194.923 53.8625 196.505C57.9676 207.947 63.2324 215.788 69.5474 219.879C70.5374 220.522 71.5558 221.068 72.5953 221.521C71.8881 231.372 70.7355 242.407 69.0206 254.157C62.1682 250.38 56.4295 245.139 51.9496 238.555C48.2193 233.068 45.3482 226.641 43.4141 219.451C42.1448 214.734 41.4553 210.3 41.084 206.623C40.642 207.226 40.2425 207.808 39.8818 208.372C40.2885 211.764 40.9603 215.663 42.0635 219.776C44.0329 227.123 46.9712 233.703 50.7899 239.326C54.7005 245.081 59.5446 249.844 65.2337 253.529C66.3864 254.275 67.578 254.974 68.7978 255.635C67.387 265.089 65.612 274.986 63.4057 285.082C55.093 282.587 48.0708 278.542 42.5373 273.047C38.0574 268.602 34.5286 263.2 32.0535 256.995C30.8443 253.964 30.0028 251.029 29.4229 248.384C29.0516 248.791 28.6697 249.216 28.2808 249.658C28.8607 252.086 29.6562 254.728 30.7488 257.466C33.2946 263.864 36.9259 269.434 41.5437 274.022C43.8172 276.282 46.3312 278.306 49.0785 280.084C53.2402 282.779 57.9322 284.911 63.1087 286.457C62.1399 290.82 61.0968 295.214 59.9618 299.627C51.886 297.642 44.6411 294.061 38.4216 288.959C33.1956 284.672 28.6662 279.313 24.9677 273.022C22.4467 268.738 20.654 264.596 19.4094 261.158C19.07 261.658 18.7624 262.158 18.4866 262.661C19.7276 265.946 21.4354 269.762 23.7479 273.693C27.5312 280.134 32.1667 285.628 37.5235 290.023C39.1075 291.323 40.7552 292.53 42.4665 293.636C47.643 296.989 53.3852 299.452 59.6082 300.984C58.8834 303.765 58.1232 306.55 57.3311 309.338C58.1373 309.467 58.9364 309.581 59.7284 309.681C60.7644 305.929 61.7509 302.105 62.6879 298.217L62.6844 298.635Z" fill="#88D4FF"/>
<path d="M59.7284 309.678C58.9364 309.578 58.1408 309.463 57.3311 309.335C55.2839 316.525 52.9997 323.719 50.4646 330.835L53.3038 330.299C55.6163 323.687 57.7625 316.807 59.7284 309.678Z" fill="#00579B"/>
<path d="M46.4337 314.208C46.4337 314.208 0.0826025 314.544 3.51235 292.541C6.9421 270.537 13.3207 270.566 7.10122 262.951C0.881699 255.335 -1.90453 253.472 1.40854 241.715C4.72161 229.962 3.73865 225.656 1.44036 213.585C-0.857928 201.514 8.16903 195.409 15.2301 202.368C22.2911 209.326 24.1191 219.055 35.0661 221.932C46.013 224.81 54.7252 224.371 55.5915 238.923C56.4578 253.475 53.028 253.811 63.883 257.438C74.738 261.066 81.746 265.353 78.8573 279.824C75.9614 294.297 66.7223 308.36 46.4337 314.208Z" fill="#88D4FF"/>
<path d="M49.0715 313.38C48.4704 313.584 47.8551 313.78 47.2328 313.969C48.1769 319.585 48.9689 325.28 49.57 331.003L51.5289 330.631C50.9278 325.016 50.1074 319.257 49.0715 313.38Z" fill="#303A5D"/>
<path d="M47.4167 304.415C54.2868 301.181 60.2517 296.764 65.1488 291.291C69.0665 286.914 72.3124 281.858 74.7946 276.26C76.3044 272.858 77.3439 269.666 78.0582 266.956C77.8213 266.478 77.5561 266.021 77.2661 265.585C76.5625 268.459 75.4664 272.019 73.7657 275.843C71.3295 281.326 68.1472 286.278 64.3073 290.563C59.5516 295.872 53.7635 300.163 47.1055 303.323C45.9741 298.021 44.68 292.637 43.2161 287.182C53.3357 281.798 58.6712 273.133 61.3761 266.739C62.893 263.158 63.7663 259.923 64.2614 257.57C64.1305 257.527 63.9997 257.481 63.8689 257.438C63.6391 257.36 63.4163 257.285 63.1971 257.21C62.7127 259.534 61.8499 262.779 60.3437 266.332C57.7272 272.497 52.5967 280.841 42.9191 286.075C42.6751 285.175 42.4276 284.276 42.1766 283.372C41.9291 282.494 41.678 281.612 41.4235 280.727L41.5437 280.891C46.508 277.203 50.9101 271.159 54.6227 262.929C55.5067 260.973 56.6487 258.206 57.7802 254.832C57.4301 254.582 57.1367 254.325 56.8927 254.046C51.6667 270.198 44.4466 277.267 41.1512 279.795C39.7121 274.857 38.1458 269.866 36.4486 264.843C42.6645 261.426 46.6176 252.854 48.1946 239.344C48.7815 234.335 48.9123 229.53 48.8982 225.942C48.5375 225.745 48.1663 225.56 47.7809 225.388C47.8587 235.738 46.7201 257.699 36.0808 263.772C34.4367 258.938 32.6794 254.075 30.8125 249.194C35.7237 242.365 37.23 233.336 37.6189 226.888C37.7109 225.374 37.7462 223.932 37.7462 222.593C37.375 222.507 37.0037 222.418 36.6254 222.329C36.6395 229.551 35.607 240.155 30.3316 247.945C29.338 245.374 28.3162 242.8 27.266 240.222C26.8064 239.098 26.3502 237.991 25.8941 236.902C28.4364 232.686 29.4936 226.763 29.0304 219.276C29.0269 219.237 29.0233 219.197 29.0233 219.155C28.6096 218.862 28.2172 218.551 27.8353 218.23C28.2773 223.671 28.0757 230.522 25.3567 235.613C17.2809 216.455 9.98999 202.967 8.05943 199.486C7.70938 199.533 7.3664 199.604 7.0305 199.704C8.33876 202.11 13.3844 211.564 19.5933 225.328C11.62 225.37 5.15298 215.581 1.21761 207.637C1.1186 208.326 1.06557 209.047 1.06203 209.808C1.52169 210.686 2.00963 211.575 2.52586 212.464C7.50784 221.033 12.7585 225.699 18.1613 226.366C18.8013 226.445 19.4448 226.466 20.0883 226.434C22.0967 230.915 24.2146 235.828 26.3609 241.086C26.8064 242.179 27.2554 243.296 27.708 244.439C18.5997 244.55 9.42072 236.331 3.51236 229.708C3.49821 230.233 3.46993 230.761 3.43103 231.301C4.27256 232.222 5.17419 233.168 6.12179 234.107C12.9848 240.897 19.4519 244.692 25.3885 245.428C26.3184 245.542 27.2377 245.581 28.1429 245.546C31.0034 252.868 33.9523 261.201 36.742 270.241C30.5296 269.916 24.6106 268.152 19.1407 264.986C14.583 262.344 10.3188 258.727 6.47184 254.236C3.94726 251.29 1.93538 248.345 0.407902 245.831C0.298292 246.42 0.209896 246.977 0.142715 247.509C1.59594 249.805 3.41335 252.372 5.61264 254.943C9.54094 259.534 13.9041 263.236 18.5714 265.946C23.3483 268.716 28.4611 270.448 33.8108 271.112C34.8963 271.248 35.9889 271.333 37.0921 271.38C39.3126 278.663 41.4235 286.393 43.2939 294.419C36.4698 295.525 30.0381 295.068 24.1828 293.051C19.4448 291.42 15.0604 288.77 11.1568 285.175C9.251 283.419 7.64574 281.605 6.3198 279.906C6.19251 280.327 6.06169 280.766 5.9344 281.219C7.18254 282.762 8.65698 284.383 10.3789 285.968C14.3956 289.674 18.9109 292.408 23.8009 294.097C26.2088 294.929 28.7086 295.504 31.2863 295.825C35.2004 296.311 39.2984 296.204 43.545 295.511C44.3405 298.981 45.0937 302.505 45.7902 306.072C39.309 307.464 32.8774 307.418 26.6649 305.922C21.4425 304.665 16.358 302.391 11.5458 299.163C8.26804 296.964 5.56667 294.615 3.49468 292.576C3.42042 293.055 3.37092 293.519 3.34617 293.976C5.36159 295.9 7.89324 298.049 10.9022 300.067C15.8241 303.373 21.0324 305.704 26.3856 306.996C27.9697 307.378 29.5643 307.668 31.1731 307.868C36.0419 308.471 41.0098 308.235 46.0024 307.164C46.4337 309.413 46.8404 311.681 47.2258 313.962C47.8481 313.773 48.4633 313.576 49.0644 313.373C48.5234 310.313 47.9258 307.225 47.2682 304.105L47.4167 304.415Z" fill="#303A5D"/>
<path d="M81.7991 322.202H88.6515C90.1578 322.202 91.3776 323.437 91.367 324.958C91.3458 328.343 91.2892 334.487 91.116 341.335C88.6374 341.563 85.5011 341.817 81.7955 342.049V322.202H81.7991Z" fill="#F4F4F4"/>
<path d="M81.7991 351.617C84.7373 351.421 87.7428 351.185 90.8083 350.907C90.7164 353.11 90.6139 355.291 90.4901 357.387C89.7441 370.236 81.2192 381.339 78.486 384.588C77.9698 385.202 77.2166 385.549 76.4211 385.549H71.5558C80.8373 376.473 81.7991 355.673 81.7991 355.673V351.617Z" fill="#F4F4F4"/>
<path d="M25.9542 360.81C26.3503 367.805 33.1603 380.75 38.1104 385.552H36.392C35.5964 385.552 34.8398 385.202 34.3271 384.592C31.5939 381.339 23.069 370.236 22.323 357.39C22.1992 355.248 22.0931 353.017 22.0012 350.764C23.0761 350.878 24.3348 351.007 25.7668 351.135C25.7881 355.337 25.8446 358.858 25.9542 360.81Z" fill="#F4F4F4"/>
<path d="M21.6865 341.057C21.5203 334.323 21.4637 328.297 21.4425 324.958C21.4319 323.438 22.6518 322.202 24.158 322.202H25.9083C25.8588 326.504 25.7845 334.034 25.7598 341.424C24.4162 341.31 23.0549 341.189 21.6865 341.057Z" fill="#F4F4F4"/>
<path d="M25.7633 341.424C25.7881 334.034 25.8623 326.504 25.9118 322.202H56.4048H81.7955V342.049C68.7872 342.856 48.7851 343.366 25.7633 341.424Z" fill="white"/>
<path d="M25.9543 360.81C25.8446 358.857 25.7881 355.337 25.7669 351.135C36.4203 352.106 56.67 353.295 81.7991 351.617V355.673C81.7991 355.673 80.8373 376.476 71.5558 385.548H56.4083H38.114C33.1603 380.75 26.3503 367.804 25.9543 360.81Z" fill="white"/>
<path d="M81.799 342.045C85.5046 341.813 88.6409 341.56 91.1195 341.331C91.0417 344.441 90.9392 347.697 90.8083 350.903C87.7428 351.181 84.7373 351.417 81.799 351.613V342.045Z" fill="#303A5D"/>
<path d="M25.7633 341.424C25.7527 344.798 25.7492 348.136 25.7668 351.135C24.3348 351.003 23.0761 350.878 22.0012 350.764C21.8668 347.508 21.7678 344.206 21.69 341.06C23.0549 341.189 24.4162 341.31 25.7633 341.424Z" fill="#303A5D"/>
<path d="M81.7991 342.045V351.614C56.67 353.288 36.4203 352.099 25.7668 351.132C25.7527 348.136 25.7527 344.794 25.7633 341.421C48.7851 343.366 68.7872 342.856 81.7991 342.045Z" fill="#00579B"/>
<path d="M623.92 390H136.08C133.827 390 132 388.319 132 386.248V383.752C132 381.681 133.827 380 136.08 380H623.92C626.172 380 628 381.681 628 383.752V386.248C627.995 388.324 626.172 390 623.92 390Z" fill="#88D4FF"/>
</svg>
